<svg width="14" height="15" viewBox="0 0 14 15" fill="none" xmlns="http://www.w3.org/2000/svg">
<path d="M7.05679 0.738098L5.07138 2.81601C4.85298 3.04288 4.86433 3.31535 5.00331 3.61448L5.06003 3.74183L4.97211 3.82772L4.30274 4.48818L4.91822 5.1279L5.54788 4.42598L5.63013 4.33713L5.74926 4.3934C6.05274 4.55037 6.33354 4.56222 6.53491 4.35194L8.526 2.27136L8.2367 1.96986L6.94051 3.32128L6.66822 3.03103L7.95874 1.68258L7.64958 1.3559L6.35906 2.70939L6.08394 2.42211L7.37446 1.06892L7.05679 0.738098ZM0.299863 0.819841C0.137343 1.08995 0.112383 1.43676 0.205698 1.84399C0.315463 2.32734 0.593704 2.88709 0.983129 3.41605C1.75886 4.47633 2.40242 4.84062 3.44618 5.03905L3.51425 5.0509C3.89999 5.52773 4.28572 6.00159 4.67146 6.47843H5.72373L0.299863 0.819841ZM3.36392 5.42111L2.2935 6.47843H3.70144L3.97657 6.17337L3.36392 5.42111ZM0.222716 6.89306V8.77373L0.690989 7.3077H7.41417L7.88216 8.77373V6.89306H0.222716ZM1.05914 7.8408L0.775511 8.7293H2.05298L2.33718 7.8408H1.05914ZM2.87324 7.8408L2.58961 8.7293H3.79788V7.8408H2.87324ZM4.30841 7.8408V8.7293H5.51668L5.23305 7.8408H4.30841ZM5.76627 7.8408L6.0499 8.7293H7.32908L7.04545 7.8408H5.76627ZM8.39269 7.89411V13.468H10.6334C10.7525 12.929 11.2177 12.5203 11.7679 12.5203C12.3181 12.5203 12.7833 12.929 12.9024 13.468H13.3279V11.5725L11.7339 11.1579H8.78978V8.7293H10.5398L10.3441 8.28505L8.39269 7.89411ZM0.222716 9.2624V12.6446L1.41879 13.468H1.83998C1.9574 12.929 2.42227 12.5203 2.97535 12.5203C3.52559 12.5203 3.99075 12.929 4.10987 13.468H7.88216V9.2624H7.48508V11.6317H0.619798V9.2624H0.222716ZM9.30031 9.2624V10.6248H11.3538L10.7014 9.2624H9.30031ZM1.32887 9.82512L1.78268 10.299H2.23649L2.69172 9.82512H1.32887ZM1.10197 10.6248V11.1579H7.0029V10.6248H1.10197ZM2.97535 13.0534C2.60947 13.0534 2.32016 13.3554 2.32016 13.7345C2.32016 14.1136 2.60947 14.4157 2.97535 14.4157C3.3384 14.4157 3.6277 14.1136 3.6277 13.7345C3.6277 13.3554 3.3384 13.0534 2.97535 13.0534ZM11.7679 13.0534C11.4048 13.0534 11.1155 13.3554 11.1155 13.7345C11.1155 14.1136 11.4048 14.4157 11.7679 14.4157C12.1309 14.4157 12.4202 14.1136 12.4202 13.7345C12.4202 13.3554 12.1309 13.0534 11.7679 13.0534Z" fill="black"/>
</svg>
